{
    "asset" : {
        "generator" : "Khronos glTF Blender I/O v1.5.17",
        "version" : "2.0"
    },
    "scene" : 0,
    "scenes" : [
        {
            "name" : "Scene",
            "nodes" : [
                0,
                1,
                4,
                5,
                6,
                7,
                8,
                9,
                10,
                11,
                12,
                13,
                14,
                15,
                16,
                17,
                18,
                19,
                20,
                21
            ]
        }
    ],
    "nodes" : [
        {
            "name" : "Light",
            "rotation" : [
                0.16907575726509094,
                0.7558803558349609,
                -0.27217137813568115,
                0.570947527885437
            ],
            "translation" : [
                4.076245307922363,
                5.903861999511719,
                -1.0054539442062378
            ]
        },
        {
            "name" : "Camera",
            "rotation" : [
                0.483536034822464,
                0.33687159419059753,
                -0.20870360732078552,
                0.7804827094078064
            ],
            "translation" : [
                7.358891487121582,
                4.958309173583984,
                6.925790786743164
            ]
        },
        {
            "mesh" : 0,
            "name" : "Object035",
            "rotation" : [
                0,
                -0.7071068286895752,
                0,
                0.7071067094802856
            ],
            "scale" : [
                1.096750020980835,
                1.096750020980835,
                1.096750020980835
            ],
            "translation" : [
                0,
                -512.0831298828125,
                0
            ]
        },
        {
            "mesh" : 1,
            "name" : "Samsung_Serif_TV_40_mat(2)",
            "rotation" : [
                0,
                -0.7071068286895752,
                0,
                0.7071067094802856
            ],
            "scale" : [
                1.096750020980835,
                1.096750020980835,
                1.096750020980835
            ],
            "translation" : [
                0,
                -512.0831298828125,
                0
            ]
        },
        {
            "children" : [
                2,
                3
            ],
            "name" : "serif",
            "rotation" : [
                0,
                0.7071068286895752,
                0,
                0.7071067094802856
            ],
            "scale" : [
                0.0010000000474974513,
                0.0010000000474974513,
                0.0010000000474974513
            ],
            "translation" : [
                -0.02342604100704193,
                0.5136469006538391,
                -0.028305375948548317
            ]
        },
        {
            "name" : "Particle View 001",
            "scale" : [
                0.0010000000474974513,
                0.0010000000474974513,
                0.0010000000474974513
            ],
            "translation" : [
                -9.838900566101074,
                0,
                -11.962428092956543
            ]
        },
        {
            "name" : "Particle View 002",
            "scale" : [
                0.0010000000474974513,
                0.0010000000474974513,
                0.0010000000474974513
            ],
            "translation" : [
                -10.049947738647461,
                -0.0003253174072597176,
                -11.825515747070312
            ]
        },
        {
            "name" : "Particle View 001.001",
            "rotation" : [
                0,
                0.5,
                0,
                0.8660253882408142
            ],
            "scale" : [
                0.0010000000474974513,
                0.0010000000474974513,
                0.0010000000474974513
            ],
            "translation" : [
                -12.583544731140137,
                0,
                -10.043107032775879
            ]
        },
        {
            "name" : "Particle View 002.001",
            "rotation" : [
                0,
                0.5,
                0,
                0.8660253882408142
            ],
            "scale" : [
                0.0010000000474974513,
                0.0010000000474974513,
                0.0010000000474974513
            ],
            "translation" : [
                -12.570500373840332,
                -0.0003253174072597176,
                -9.791879653930664
            ]
        },
        {
            "name" : "Particle View 01",
            "rotation" : [
                0,
                0.5,
                0,
                0.8660253882408142
            ],
            "scale" : [
                0.0010000000474974513,
                0.0010000000474974513,
                0.0010000000474974513
            ],
            "translation" : [
                -11.640953063964844,
                0,
                -9.433984756469727
            ]
        },
        {
            "name" : "Particle View 001.002",
            "scale" : [
                0.0010000000474974513,
                0.0010000000474974513,
                0.0010000000474974513
            ],
            "translation" : [
                -9.838900566101074,
                0,
                -11.962428092956543
            ]
        },
        {
            "name" : "Particle View 002.002",
            "scale" : [
                0.0010000000474974513,
                0.0010000000474974513,
                0.0010000000474974513
            ],
            "translation" : [
                -10.049947738647461,
                -0.0003253174072597176,
                -11.825515747070312
            ]
        },
        {
            "name" : "Particle View 001.003",
            "rotation" : [
                0,
                0.5,
                0,
                0.8660253882408142
            ],
            "scale" : [
                0.0010000000474974513,
                0.0010000000474974513,
                0.0010000000474974513
            ],
            "translation" : [
                -12.583544731140137,
                0,
                -10.043107032775879
            ]
        },
        {
            "name" : "Particle View 002.003",
            "rotation" : [
                0,
                0.5,
                0,
                0.8660253882408142
            ],
            "scale" : [
                0.0010000000474974513,
                0.0010000000474974513,
                0.0010000000474974513
            ],
            "translation" : [
                -12.570500373840332,
                -0.0003253174072597176,
                -9.791879653930664
            ]
        },
        {
            "name" : "Particle View 01.001",
            "rotation" : [
                0,
                0.5,
                0,
                0.8660253882408142
            ],
            "scale" : [
                0.0010000000474974513,
                0.0010000000474974513,
                0.0010000000474974513
            ],
            "translation" : [
                -11.640953063964844,
                0,
                -9.433984756469727
            ]
        },
        {
            "name" : "Particle View 001.004",
            "scale" : [
                0.0010000000474974513,
                0.0010000000474974513,
                0.0010000000474974513
            ],
            "translation" : [
                -9.838900566101074,
                0,
                -11.962428092956543
            ]
        },
        {
            "name" : "Particle View 002.004",
            "scale" : [
                0.0010000000474974513,
                0.0010000000474974513,
                0.0010000000474974513
            ],
            "translation" : [
                -10.049947738647461,
                -0.0003253174072597176,
                -11.825515747070312
            ]
        },
        {
            "name" : "Particle View 001.005",
            "rotation" : [
                0,
                0.5,
                0,
                0.8660253882408142
            ],
            "scale" : [
                0.0010000000474974513,
                0.0010000000474974513,
                0.0010000000474974513
            ],
            "translation" : [
                -12.583544731140137,
                0,
                -10.043107032775879
            ]
        },
        {
            "name" : "Particle View 002.005",
            "rotation" : [
                0,
                0.5,
                0,
                0.8660253882408142
            ],
            "scale" : [
                0.0010000000474974513,
                0.0010000000474974513,
                0.0010000000474974513
            ],
            "translation" : [
                -12.570500373840332,
                -0.0003253174072597176,
                -9.791879653930664
            ]
        },
        {
            "name" : "Particle View 01.002",
            "rotation" : [
                0,
                0.5,
                0,
                0.8660253882408142
            ],
            "scale" : [
                0.0010000000474974513,
                0.0010000000474974513,
                0.0010000000474974513
            ],
            "translation" : [
                -11.640953063964844,
                0,
                -9.433984756469727
            ]
        },
        {
            "name" : "\u00d7\u00fe\u00d7\u00fc",
            "scale" : [
                0.0010000000474974513,
                0.0010000000474974513,
                0.0010000000474974513
            ]
        },
        {
            "name" : "\u00a1\u00a1\u00d7\u00fd\u00d7\u00fb",
            "scale" : [
                0.0010000000474974513,
                0.0010000000474974513,
                0.0010000000474974513
            ]
        }
    ],
    "materials" : [
        {
            "doubleSided" : true,
            "name" : "living_divani_hoop_200",
            "pbrMetallicRoughness" : {
                "roughnessFactor" : 0.858578622341156
            }
        },
        {
            "doubleSided" : true,
            "name" : "living_divani_hoop_200a",
            "pbrMetallicRoughness" : {
                "baseColorFactor" : [
                    0.19607844948768616,
                    0.19607844948768616,
                    0.19607844948768616,
                    1
                ],
                "roughnessFactor" : 0.858578622341156
            }
        },
        {
            "doubleSided" : true,
            "emissiveFactor" : [
                1,
                1,
                1
            ],
            "name" : "asdf",
            "pbrMetallicRoughness" : {
                "baseColorFactor" : [
                    0.19607844948768616,
                    0.19607844948768616,
                    0.19607844948768616,
                    1
                ],
                "roughnessFactor" : 0.858578622341156
            }
        }
    ],
    "meshes" : [
        {
            "name" : "Mesh",
            "primitives" : [
                {
                    "attributes" : {
                        "POSITION" : 0,
                        "NORMAL" : 1,
                        "TEXCOORD_0" : 2
                    },
                    "indices" : 3,
                    "material" : 0
                },
                {
                    "attributes" : {
                        "POSITION" : 4,
                        "NORMAL" : 5,
                        "TEXCOORD_0" : 6
                    },
                    "indices" : 7,
                    "material" : 1
                }
            ]
        },
        {
            "name" : "Mesh.001",
            "primitives" : [
                {
                    "attributes" : {
                        "POSITION" : 8,
                        "NORMAL" : 9,
                        "TEXCOORD_0" : 10
                    },
                    "indices" : 11,
                    "material" : 0
                },
                {
                    "attributes" : {
                        "POSITION" : 12,
                        "NORMAL" : 13,
                        "TEXCOORD_0" : 14
                    },
                    "indices" : 15,
                    "material" : 2
                }
            ]
        }
    ],
    "accessors" : [
        {
            "bufferView" : 0,
            "componentType" : 5126,
            "count" : 2589,
            "max" : [
                461.5211486816406,
                378.0633544921875,
                58.94483947753906
            ],
            "min" : [
                -461.5211486816406,
                373.8194580078125,
                -99.11919403076172
            ],
            "type" : "VEC3"
        },
        {
            "bufferView" : 1,
            "componentType" : 5126,
            "count" : 2589,
            "type" : "VEC3"
        },
        {
            "bufferView" : 2,
            "componentType" : 5126,
            "count" : 2589,
            "type" : "VEC2"
        },
        {
            "bufferView" : 3,
            "componentType" : 5123,
            "count" : 14760,
            "type" : "SCALAR"
        },
        {
            "bufferView" : 4,
            "componentType" : 5126,
            "count" : 768,
            "max" : [
                440.7484436035156,
                373.8195495605469,
                151.0829620361328
            ],
            "min" : [
                -440.74810791015625,
                -0.00030517578125,
                -151.08279418945312
            ],
            "type" : "VEC3"
        },
        {
            "bufferView" : 5,
            "componentType" : 5126,
            "count" : 768,
            "type" : "VEC3"
        },
        {
            "bufferView" : 6,
            "componentType" : 5126,
            "count" : 768,
            "type" : "VEC2"
        },
        {
            "bufferView" : 7,
            "componentType" : 5123,
            "count" : 3048,
            "type" : "SCALAR"
        },
        {
            "bufferView" : 8,
            "componentType" : 5126,
            "count" : 26224,
            "max" : [
                465.441650390625,
                933.8195190429688,
                71.70769500732422
            ],
            "min" : [
                -465.441650390625,
                378.0633239746094,
                -102.6180191040039
            ],
            "type" : "VEC3"
        },
        {
            "bufferView" : 9,
            "componentType" : 5126,
            "count" : 26224,
            "type" : "VEC3"
        },
        {
            "bufferView" : 10,
            "componentType" : 5126,
            "count" : 26224,
            "type" : "VEC2"
        },
        {
            "bufferView" : 11,
            "componentType" : 5123,
            "count" : 140601,
            "type" : "SCALAR"
        },
        {
            "bufferView" : 12,
            "componentType" : 5126,
            "count" : 227,
            "max" : [
                440.7153625488281,
                903.8180541992188,
                3.8152480125427246
            ],
            "min" : [
                -440.7153625488281,
                411.9029541015625,
                3.8151586055755615
            ],
            "type" : "VEC3"
        },
        {
            "bufferView" : 13,
            "componentType" : 5126,
            "count" : 227,
            "type" : "VEC3"
        },
        {
            "bufferView" : 14,
            "componentType" : 5126,
            "count" : 227,
            "type" : "VEC2"
        },
        {
            "bufferView" : 15,
            "componentType" : 5123,
            "count" : 675,
            "type" : "SCALAR"
        }
    ],
    "bufferViews" : [
        {
            "buffer" : 0,
            "byteLength" : 31068,
            "byteOffset" : 0
        },
        {
            "buffer" : 0,
            "byteLength" : 31068,
            "byteOffset" : 31068
        },
        {
            "buffer" : 0,
            "byteLength" : 20712,
            "byteOffset" : 62136
        },
        {
            "buffer" : 0,
            "byteLength" : 29520,
            "byteOffset" : 82848
        },
        {
            "buffer" : 0,
            "byteLength" : 9216,
            "byteOffset" : 112368
        },
        {
            "buffer" : 0,
            "byteLength" : 9216,
            "byteOffset" : 121584
        },
        {
            "buffer" : 0,
            "byteLength" : 6144,
            "byteOffset" : 130800
        },
        {
            "buffer" : 0,
            "byteLength" : 6096,
            "byteOffset" : 136944
        },
        {
            "buffer" : 0,
            "byteLength" : 314688,
            "byteOffset" : 143040
        },
        {
            "buffer" : 0,
            "byteLength" : 314688,
            "byteOffset" : 457728
        },
        {
            "buffer" : 0,
            "byteLength" : 209792,
            "byteOffset" : 772416
        },
        {
            "buffer" : 0,
            "byteLength" : 281202,
            "byteOffset" : 982208
        },
        {
            "buffer" : 0,
            "byteLength" : 2724,
            "byteOffset" : 1263412
        },
        {
            "buffer" : 0,
            "byteLength" : 2724,
            "byteOffset" : 1266136
        },
        {
            "buffer" : 0,
            "byteLength" : 1816,
            "byteOffset" : 1268860
        },
        {
            "buffer" : 0,
            "byteLength" : 1350,
            "byteOffset" : 1270676
        }
    ],
    "buffers" : [
        {
            "byteLength" : 1272028,
            "uri" : "gltf03.bin"
        }
    ]
}
